# Blender 3.5.0
# www.blender.org
mtllib sat2.mtl
o satellite
v -0.179538 0.238373 -0.179466
v -0.000088 0.238373 -0.035916
v 0.179362 0.238373 -0.179466
v 0.035812 0.238373 -0.000016
v 0.031012 0.238373 -0.017967
v -0.031188 0.238373 -0.017967
v -0.018038 0.238373 -0.031116
v 0.017862 0.238373 -0.031116
v 0.179362 0.238373 0.179434
v 0.017862 0.238373 0.031084
v 0.031012 0.238373 0.017934
v -0.000088 0.238373 0.035884
v -0.031188 0.238373 0.017934
v -0.179538 0.238373 0.179434
v -0.018038 0.238373 0.031084
v -0.035988 0.238373 -0.000016
v -1.016888 0.023023 0.024084
v -1.016888 -0.120527 0.024084
v -1.016888 -0.120527 0.251234
v -1.016888 0.023023 -0.012116
v -0.801688 0.023023 -0.012116
v -0.801688 0.023023 -0.251216
v -0.550488 -0.091677 0.024084
v -0.765488 -0.091677 0.024084
v -0.765488 -0.005827 0.024084
v -0.801688 -0.005827 0.024084
v -0.801688 -0.091677 0.024084
v -0.801688 -0.120527 0.024084
v -0.801688 0.023023 0.024084
v -0.801688 -0.091677 0.251234
v -0.765488 -0.005827 0.251234
v -0.765488 0.023023 0.024084
v -0.801688 -0.005827 0.251234
v -0.765488 0.023023 -0.012116
v -0.765488 -0.005827 -0.012116
v -0.550488 0.023023 -0.012116
v -0.550488 -0.005827 -0.012116
v -0.801688 -0.091677 -0.012116
v -0.765488 -0.091677 -0.012116
v -0.801688 -0.005827 -0.012116
v -1.016888 -0.120527 -0.012116
v -0.801688 -0.120527 -0.012116
v -0.765488 -0.005827 -0.251216
v -0.801688 -0.120527 -0.251216
v -0.550488 -0.120527 0.024084
v -0.287138 -0.091827 0.011934
v -0.287138 -0.086077 0.035884
v -0.287138 -0.120527 0.251234
v -0.287138 -0.070277 0.053434
v -0.514288 -0.120527 0.024084
v -0.514288 -0.091677 0.024084
v -0.394688 -0.120527 0.024084
v -0.765488 -0.120527 0.024084
v -0.550488 -0.091677 0.251234
v -0.179538 -0.086077 0.035884
v -0.179538 -0.091827 0.011934
v -0.287138 -0.048777 0.059834
v -0.179538 -0.070277 0.053434
v -0.179538 -0.048777 0.059834
v -0.514288 0.023023 0.024084
v -0.514288 0.023023 0.251234
v -0.394688 0.023023 0.024084
v -0.287138 -0.027227 0.053434
v -0.287138 -0.011427 0.035884
v -0.287138 0.023023 0.251234
v -0.287138 0.023023 0.038510
v -0.514288 -0.005827 0.251234
v -0.514288 -0.005827 0.024084
v -0.550488 -0.005827 0.251234
v -0.550488 -0.005827 0.024084
v -0.550488 0.023023 0.024084
v -0.179538 -0.027227 0.053434
v -0.179538 -0.011427 0.035884
v -0.394688 0.023023 -0.012116
v -0.287138 0.023023 -0.251216
v -0.514288 0.023023 -0.251216
v -0.287138 -0.005677 0.011934
v -0.287138 -0.011427 -0.011966
v -0.514288 0.023023 -0.012116
v -0.514288 -0.005827 -0.012116
v 1.016712 0.023023 -0.024066
v 0.801512 0.023023 -0.251216
v 0.801512 0.023023 -0.024066
v 0.801512 -0.005827 -0.024066
v 0.765312 -0.005827 -0.024066
v 0.765312 -0.091677 -0.024066
v 0.801512 -0.091677 -0.024066
v 0.765312 -0.005827 -0.251216
v 0.765312 0.023023 -0.024066
v 0.801512 -0.005827 -0.251216
v 0.765312 -0.091677 0.012084
v 0.550312 -0.091677 0.012084
v 0.765312 -0.005827 0.012084
v 0.801512 -0.005827 0.012084
v 0.801512 -0.091677 0.012084
v 1.016712 0.023023 0.012084
v 0.801512 0.023023 0.012084
v 0.801512 -0.005827 0.251234
v 0.286962 -0.086077 -0.035916
v 0.286962 -0.070327 -0.053416
v 0.286962 -0.120577 -0.251216
v 0.550312 -0.005827 -0.024066
v 0.550312 -0.091677 -0.024066
v 0.550312 -0.120577 -0.024066
v 0.286962 -0.091827 -0.011966
v 0.179362 -0.091827 -0.011966
v 0.179362 -0.086077 -0.035916
v 0.179362 -0.070327 -0.053416
v 0.514112 0.023023 -0.024066
v 0.514112 0.023023 -0.251216
v 0.394512 0.023023 -0.024066
v 0.286962 -0.027227 -0.053416
v 0.286962 0.023023 -0.251216
v 0.286962 -0.048777 -0.059866
v 0.179362 -0.048777 -0.059866
v 0.286962 0.023023 -0.038376
v 0.286962 -0.011427 -0.035916
v 0.179362 -0.027227 -0.053416
v 0.550312 -0.005827 -0.251216
v 0.550312 0.023023 -0.024066
v 0.514112 -0.005827 -0.251216
v 0.179362 -0.011427 -0.035916
v 0.394512 0.023023 0.012084
v 0.286962 0.023023 0.251234
v 0.286962 -0.005677 -0.011966
v 0.286962 -0.011427 0.011983
v 0.514112 -0.005827 -0.024066
v 0.179362 -0.005677 -0.011966
v 0.514112 0.023023 0.012084
v 0.514112 -0.005827 0.012084
v 0.550312 -0.005827 0.012084
v 0.765312 0.023023 0.012084
v 0.550312 0.023023 0.012084
v 0.514112 -0.091677 0.012084
v 0.179362 -0.011427 0.011983
v 0.286962 -0.027227 0.029484
v 0.179362 -0.027227 0.029484
v 0.179362 -0.048777 0.035884
v 0.286962 -0.048777 0.035884
v 0.179362 -0.070327 0.029484
v 0.286962 -0.070327 0.029484
v 0.550312 -0.091677 0.251234
v 0.550312 -0.120577 0.012084
v 0.286962 -0.086077 0.011983
v 0.179362 -0.086077 0.011983
v -0.765488 -0.091677 0.251234
v -1.016888 0.023023 0.251234
v -0.801688 0.023023 0.251234
v -0.801688 -0.120527 0.251234
v -0.765488 0.023023 0.251234
v -0.765488 -0.120527 0.251234
v -0.514288 -0.091677 0.251234
v -0.514288 -0.120527 0.251234
v -0.550488 0.023023 0.251234
v -0.550488 -0.120527 0.251234
v 0.514112 -0.120577 0.251234
v 0.514112 -0.091677 0.251234
v 0.286962 -0.120577 0.251234
v 0.514112 -0.005827 0.251234
v 0.514112 0.023023 0.251234
v 0.550312 -0.005827 0.251234
v 0.765312 -0.120577 0.251234
v 0.765312 -0.091677 0.251234
v 0.550312 -0.120577 0.251234
v 0.765312 -0.005827 0.251234
v 0.765312 0.023023 0.251234
v 0.550312 0.023023 0.251234
v 0.801512 -0.091677 0.251234
v 1.016712 0.023023 0.251234
v 0.801512 0.023023 0.251234
v 0.801512 -0.120577 0.251234
v 1.016712 -0.120577 0.251234
v 0.179362 -0.120527 0.179434
v -0.179538 -0.120527 0.179434
v -0.765488 0.023023 -0.251216
v -0.550488 0.023023 -0.251216
v -0.801688 -0.091677 -0.251216
v -0.801688 -0.005827 -0.251216
v -0.765488 -0.091677 -0.251216
v -0.550488 -0.005827 -0.251216
v -1.016888 -0.120527 -0.251216
v -1.016888 0.023023 -0.251216
v -0.765488 -0.120527 -0.012116
v -0.765488 -0.120527 -0.251216
v -0.550488 -0.120527 -0.251216
v -0.550488 -0.120527 -0.012116
v -0.514288 -0.005827 -0.251216
v -0.287138 -0.120527 -0.251216
v -0.550488 -0.091677 -0.251216
v -0.514288 -0.120527 -0.251216
v -0.514288 -0.091677 -0.251216
v 0.514112 -0.120577 -0.024066
v 0.394512 -0.120577 -0.024066
v 0.514112 -0.120577 -0.251216
v 0.765312 -0.120577 -0.251216
v 0.550312 -0.120577 -0.251216
v 1.016712 -0.120577 -0.251216
v 1.016712 -0.120577 -0.024066
v 0.801512 -0.120577 -0.251216
v 0.765312 -0.091677 -0.251216
v 0.550312 0.023023 -0.251216
v 0.765312 0.023023 -0.251216
v 0.801512 -0.091677 -0.251216
v 1.016712 0.023023 -0.251216
v 0.514112 -0.091677 -0.251216
v 0.550312 -0.091677 -0.251216
v -0.179538 -0.005677 0.011934
v -0.550488 -0.091677 -0.012116
v -0.179538 -0.011427 -0.011966
v -0.287138 -0.027227 -0.029517
v -0.287138 -0.048777 -0.035916
v -0.514288 -0.091677 -0.012116
v -0.179538 -0.027227 -0.029517
v -0.287138 -0.070277 -0.029517
v -0.287138 -0.086077 -0.011966
v -0.514288 -0.120527 -0.012116
v -0.179538 -0.048777 -0.035916
v -0.179538 -0.070277 -0.029517
v -0.394688 -0.120527 -0.012116
v -0.179538 -0.086077 -0.011966
v -0.179538 -0.120527 -0.179466
v 0.514112 -0.091677 -0.024066
v 0.179362 -0.120527 -0.179466
v 0.394512 -0.120577 0.012084
v 0.801512 -0.120577 0.012084
v 1.016712 -0.120577 0.012084
v 0.514112 -0.120577 0.012084
v 0.765312 -0.120577 0.012084
v 0.765312 -0.120577 -0.024066
v 0.801512 -0.120577 -0.024066
vn -0.0000 1.0000 -0.0000
vn -1.0000 -0.0000 -0.0000
vn -0.0000 -0.0000 -1.0000
vn -0.0000 -1.0000 -0.0000
vn 1.0000 -0.0000 -0.0000
vn -0.0000 -0.0000 1.0000
vn -0.0000 -0.9724 0.2334
vn -0.0000 -0.7432 0.6691
vn -0.0000 -0.2853 0.9584
vn -0.0000 0.2847 0.9586
vn -0.0000 0.7432 0.6691
vn -0.0000 -0.9724 -0.2334
vn -0.0000 -0.7433 -0.6690
vn -0.0000 -0.2867 -0.9580
vn -0.0000 0.2867 -0.9580
vn -0.0000 0.7422 -0.6701
vn -0.0000 0.9724 -0.2334
vn -0.0000 0.9724 0.2335
vn -0.0000 0.7422 0.6701
vn -0.0000 -0.2847 0.9586
vn -0.0000 -0.7433 0.6690
vn -0.0000 -0.9724 0.2335
vn -0.0000 0.9724 0.2334
vn -0.0000 0.9723 -0.2339
vn -0.0000 0.7432 -0.6691
vn -0.0000 0.2847 -0.9586
vn -0.0000 -0.2853 -0.9584
vn -0.0000 -0.7432 -0.6691
vn -0.0000 -0.9723 -0.2339
s 0
f 1//1 2//1 3//1
f 4//1 3//1 5//1
f 6//1 7//1 1//1
f 2//1 1//1 7//1
f 8//1 3//1 2//1
f 5//1 3//1 8//1
f 9//1 3//1 4//1
f 10//1 9//1 11//1
f 4//1 11//1 9//1
f 9//1 10//1 12//1
f 13//1 14//1 15//1
f 16//1 6//1 1//1
f 9//1 12//1 14//1
f 12//1 15//1 14//1
f 13//1 16//1 14//1
f 1//1 14//1 16//1
f 17//2 18//2 19//2
f 20//1 21//1 22//1
f 23//3 24//3 25//3
f 26//3 25//3 24//3
f 26//3 24//3 27//3
f 27//3 18//3 26//3
f 28//3 18//3 27//3
f 18//3 17//3 26//3
f 29//3 26//3 17//3
f 30//4 27//4 24//4
f 25//2 31//2 32//2
f 25//1 26//1 31//1
f 33//1 31//1 26//1
f 27//5 30//5 28//5
f 29//5 33//5 26//5
f 34//6 35//6 36//6
f 37//6 36//6 35//6
f 38//6 39//6 35//6
f 38//6 35//6 40//6
f 20//6 41//6 40//6
f 21//6 20//6 40//6
f 38//6 40//6 41//6
f 42//6 38//6 41//6
f 34//2 43//2 35//2
f 35//1 43//1 40//1
f 42//5 44//5 38//5
f 22//5 21//5 40//5
f 23//3 45//3 24//3
f 46//5 47//5 48//5
f 47//5 49//5 48//5
f 50//3 51//3 52//3
f 53//3 24//3 45//3
f 54//4 23//4 51//4
f 54//5 45//5 23//5
f 55//7 47//7 56//7
f 46//7 56//7 47//7
f 57//5 48//5 49//5
f 55//8 58//8 49//8
f 55//8 49//8 47//8
f 59//9 57//9 49//9
f 59//9 49//9 58//9
f 60//1 61//1 62//1
f 63//5 64//5 65//5
f 63//5 65//5 57//5
f 66//5 65//5 64//5
f 67//2 61//2 68//2
f 69//5 70//5 71//5
f 69//1 67//1 68//1
f 59//10 72//10 63//10
f 59//10 63//10 57//10
f 60//3 62//3 68//3
f 52//3 68//3 62//3
f 71//3 70//3 32//3
f 70//1 69//1 68//1
f 72//11 73//11 64//11
f 72//11 64//11 63//11
f 74//1 62//1 66//1
f 66//1 75//1 74//1
f 75//1 76//1 74//1
f 66//5 77//5 78//5
f 64//5 77//5 66//5
f 66//5 78//5 75//5
f 23//3 25//3 70//3
f 70//3 25//3 32//3
f 68//3 51//3 70//3
f 79//6 80//6 74//6
f 81//1 82//1 83//1
f 84//6 85//6 86//6
f 84//6 86//6 87//6
f 87//6 81//6 84//6
f 83//6 84//6 81//6
f 85//5 88//5 89//5
f 85//1 84//1 88//1
f 90//1 88//1 84//1
f 82//2 90//2 84//2
f 82//2 84//2 83//2
f 91//3 92//3 93//3
f 94//3 95//3 93//3
f 95//3 91//3 93//3
f 95//3 94//3 96//3
f 96//3 94//3 97//3
f 93//1 98//1 94//1
f 98//2 97//2 94//2
f 99//2 100//2 101//2
f 86//6 102//6 103//6
f 104//6 86//6 103//6
f 105//12 106//12 99//12
f 107//12 99//12 106//12
f 107//13 108//13 100//13
f 107//13 100//13 99//13
f 109//1 110//1 111//1
f 112//2 113//2 114//2
f 108//14 115//14 114//14
f 108//14 114//14 100//14
f 116//1 111//1 113//1
f 112//2 117//2 113//2
f 115//15 118//15 112//15
f 115//15 112//15 114//15
f 113//2 117//2 116//2
f 119//2 102//2 120//2
f 119//1 121//1 102//1
f 118//16 122//16 117//16
f 118//16 117//16 112//16
f 123//1 111//1 116//1
f 116//1 124//1 123//1
f 116//2 125//2 126//2
f 117//2 125//2 116//2
f 126//2 124//2 116//2
f 111//6 127//6 109//6
f 86//6 85//6 102//6
f 120//6 102//6 89//6
f 127//6 103//6 102//6
f 89//6 102//6 85//6
f 127//5 121//5 109//5
f 121//1 127//1 102//1
f 117//17 128//17 125//17
f 122//17 128//17 117//17
f 129//3 130//3 123//3
f 93//3 92//3 131//3
f 132//3 93//3 133//3
f 131//3 134//3 130//3
f 131//3 133//3 93//3
f 134//3 123//3 130//3
f 128//18 135//18 126//18
f 128//18 126//18 125//18
f 136//19 126//19 135//19
f 136//19 135//19 137//19
f 137//10 138//10 139//10
f 137//10 139//10 136//10
f 138//20 140//20 141//20
f 138//20 141//20 139//20
f 92//4 142//4 134//4
f 143//2 142//2 92//2
f 144//21 141//21 145//21
f 140//21 145//21 141//21
f 145//22 106//22 105//22
f 145//22 105//22 144//22
f 33//6 30//6 31//6
f 30//6 146//6 31//6
f 147//6 19//6 33//6
f 148//6 147//6 33//6
f 30//6 33//6 19//6
f 149//6 30//6 19//6
f 19//4 28//4 149//4
f 147//2 17//2 19//2
f 71//1 32//1 150//1
f 17//1 147//1 29//1
f 148//1 29//1 147//1
f 146//2 24//2 53//2
f 146//2 53//2 151//2
f 30//4 24//4 146//4
f 32//2 31//2 150//2
f 30//5 149//5 28//5
f 148//5 33//5 29//5
f 48//6 152//6 153//6
f 61//6 67//6 65//6
f 65//6 67//6 48//6
f 152//6 48//6 67//6
f 54//6 152//6 67//6
f 54//6 67//6 69//6
f 150//6 31//6 69//6
f 154//6 150//6 69//6
f 54//6 69//6 31//6
f 31//6 146//6 54//6
f 151//6 54//6 146//6
f 155//6 54//6 151//6
f 50//4 52//4 153//4
f 151//4 53//4 155//4
f 45//4 155//4 53//4
f 66//1 62//1 65//1
f 65//1 62//1 61//1
f 154//1 71//1 150//1
f 48//5 57//5 65//5
f 152//2 51//2 50//2
f 152//2 50//2 153//2
f 51//4 152//4 54//4
f 60//2 68//2 61//2
f 54//5 155//5 45//5
f 154//5 69//5 71//5
f 156//6 157//6 158//6
f 124//6 159//6 160//6
f 142//6 161//6 157//6
f 161//6 159//6 157//6
f 159//6 124//6 157//6
f 158//6 157//6 124//6
f 162//6 163//6 142//6
f 162//6 142//6 164//6
f 161//6 165//6 166//6
f 161//6 166//6 167//6
f 168//6 98//6 163//6
f 98//6 165//6 163//6
f 142//6 163//6 165//6
f 142//6 165//6 161//6
f 169//6 170//6 98//6
f 169//6 98//6 168//6
f 171//6 172//6 168//6
f 169//6 168//6 172//6
f 131//1 159//1 161//1
f 167//2 133//2 161//2
f 167//1 166//1 133//1
f 132//1 133//1 166//1
f 170//1 169//1 97//1
f 96//1 97//1 169//1
f 124//2 139//2 158//2
f 157//5 156//5 134//5
f 134//4 142//4 157//4
f 166//5 165//5 132//5
f 97//2 98//2 170//2
f 9//6 14//6 173//6
f 174//6 173//6 14//6
f 43//3 175//3 176//3
f 177//3 178//3 179//3
f 178//3 43//3 179//3
f 43//3 180//3 179//3
f 177//3 181//3 178//3
f 44//3 181//3 177//3
f 181//3 182//3 178//3
f 22//3 178//3 182//3
f 44//4 41//4 181//4
f 181//2 41//2 182//2
f 20//2 182//2 41//2
f 20//1 22//1 182//1
f 183//2 39//2 179//2
f 183//2 179//2 184//2
f 38//4 177//4 39//4
f 179//4 39//4 177//4
f 175//2 43//2 34//2
f 40//1 43//1 178//1
f 177//5 38//5 44//5
f 22//5 40//5 178//5
f 179//3 185//3 184//3
f 186//4 183//4 185//4
f 187//3 76//3 75//3
f 176//3 180//3 43//3
f 75//3 188//3 187//3
f 187//3 189//3 180//3
f 36//5 180//5 176//5
f 190//3 191//3 188//3
f 189//3 187//3 191//3
f 191//3 187//3 188//3
f 185//3 179//3 189//3
f 179//3 180//3 189//3
f 192//4 193//4 194//4
f 195//4 104//4 196//4
f 197//4 198//4 199//4
f 198//5 197//5 81//5
f 104//2 103//2 196//2
f 195//3 196//3 200//3
f 201//3 202//3 88//3
f 90//3 203//3 88//3
f 88//3 203//3 200//3
f 90//3 204//3 203//3
f 82//3 204//3 90//3
f 204//3 197//3 203//3
f 199//3 203//3 197//3
f 204//5 81//5 197//5
f 202//1 120//1 89//1
f 201//1 120//1 202//1
f 81//1 204//1 82//1
f 86//4 200//4 87//4
f 203//4 87//4 200//4
f 89//5 88//5 202//5
f 87//2 203//2 199//2
f 101//3 205//3 194//3
f 101//3 113//3 205//3
f 113//3 121//3 205//3
f 205//3 121//3 206//3
f 196//3 206//3 200//3
f 73//23 207//23 77//23
f 73//23 77//23 64//23
f 79//1 74//1 76//1
f 176//1 175//1 36//1
f 175//1 34//1 36//1
f 39//6 208//6 37//6
f 80//2 79//2 187//2
f 76//2 187//2 79//2
f 180//5 36//5 37//5
f 180//1 37//1 187//1
f 80//1 187//1 37//1
f 207//24 209//24 78//24
f 207//24 78//24 77//24
f 210//5 75//5 78//5
f 211//5 75//5 210//5
f 80//6 37//6 208//6
f 190//2 212//2 191//2
f 186//5 185//5 189//5
f 213//25 210//25 78//25
f 213//25 78//25 209//25
f 188//5 211//5 214//5
f 214//5 215//5 188//5
f 188//5 75//5 211//5
f 190//2 216//2 212//2
f 191//4 212//4 189//4
f 213//26 217//26 211//26
f 213//26 211//26 210//26
f 217//27 218//27 214//27
f 217//27 214//27 211//27
f 215//5 46//5 188//5
f 52//2 62//2 219//2
f 219//6 212//6 216//6
f 74//6 80//6 219//6
f 208//6 39//6 186//6
f 183//6 186//6 39//6
f 208//4 189//4 212//4
f 189//5 208//5 186//5
f 215//28 214//28 220//28
f 218//28 220//28 214//28
f 48//5 188//5 46//5
f 220//29 56//29 46//29
f 220//29 46//29 215//29
f 74//2 219//2 62//2
f 51//3 68//3 52//3
f 23//3 70//3 51//3
f 208//6 212//6 80//6
f 212//6 219//6 80//6
f 37//6 35//6 39//6
f 72//2 14//2 73//2
f 174//2 14//2 72//2
f 58//2 174//2 59//2
f 55//2 174//2 58//2
f 55//2 56//2 174//2
f 221//2 174//2 56//2
f 59//2 174//2 72//2
f 14//2 1//2 207//2
f 221//2 213//2 1//2
f 207//2 1//2 209//2
f 14//2 207//2 73//2
f 209//2 1//2 213//2
f 213//2 221//2 217//2
f 217//2 221//2 218//2
f 218//2 221//2 220//2
f 56//2 220//2 221//2
f 222//6 127//6 111//6
f 103//6 127//6 222//6
f 134//3 131//3 92//3
f 137//5 135//5 9//5
f 173//5 137//5 9//5
f 137//5 173//5 138//5
f 145//5 140//5 173//5
f 107//5 106//5 223//5
f 173//5 223//5 106//5
f 107//5 223//5 108//5
f 108//5 223//5 115//5
f 115//5 223//5 118//5
f 223//5 3//5 118//5
f 138//5 173//5 140//5
f 173//5 106//5 145//5
f 122//5 118//5 3//5
f 122//5 3//5 128//5
f 3//5 9//5 128//5
f 135//5 128//5 9//5
f 205//5 222//5 194//5
f 222//4 205//4 103//4
f 206//4 103//4 205//4
f 196//2 103//2 206//2
f 110//3 121//3 113//3
f 88//3 119//3 201//3
f 200//3 206//3 119//3
f 88//3 200//3 119//3
f 121//3 119//3 206//3
f 113//1 111//1 110//1
f 100//2 114//2 101//2
f 113//2 101//2 114//2
f 109//5 121//5 110//5
f 119//2 120//2 201//2
f 221//3 1//3 223//3
f 223//3 1//3 3//3
f 158//4 224//4 156//4
f 164//4 143//4 162//4
f 171//4 225//4 172//4
f 226//5 96//5 172//5
f 227//5 134//5 156//5
f 162//5 228//5 91//5
f 168//2 225//2 171//2
f 101//4 193//4 224//4
f 101//4 194//4 193//4
f 195//4 229//4 104//4
f 198//4 230//4 199//4
f 227//4 156//4 224//4
f 101//4 224//4 158//4
f 143//4 228//4 162//4
f 225//4 226//4 172//4
f 193//5 111//5 224//5
f 229//5 195//5 86//5
f 87//2 199//2 230//2
f 123//3 134//3 224//3
f 227//3 224//3 134//3
f 143//3 92//3 228//3
f 225//3 95//3 226//3
f 18//4 28//4 19//4
f 184//4 185//4 183//4
f 44//4 42//4 41//4
f 52//4 48//4 153//4
f 52//4 219//4 48//4
f 188//4 48//4 219//4
f 216//4 190//4 219//4
f 188//4 219//4 190//4
f 173//4 174//4 223//4
f 221//4 223//4 174//4
f 172//5 96//5 169//5
f 129//1 123//1 160//1
f 160//1 123//1 124//1
f 124//2 126//2 136//2
f 124//2 136//2 139//2
f 141//2 158//2 139//2
f 130//5 129//5 159//5
f 160//5 159//5 129//5
f 159//1 131//1 130//1
f 143//2 164//2 142//2
f 131//2 161//2 133//2
f 91//5 163//5 162//5
f 163//4 91//4 168//4
f 95//4 168//4 91//4
f 165//5 93//5 132//5
f 93//1 165//1 98//1
f 95//2 225//2 168//2
f 101//2 158//2 105//2
f 144//2 105//2 158//2
f 99//2 101//2 105//2
f 141//2 144//2 158//2
f 123//5 224//5 111//5
f 192//6 222//6 193//6
f 111//6 193//6 222//6
f 229//6 86//6 104//6
f 230//6 198//6 87//6
f 81//6 87//6 198//6
f 194//5 222//5 192//5
f 195//5 200//5 86//5
f 91//3 228//3 92//3
f 96//3 226//3 95//3
